<svg width="20" height="20" viewBox="0 0 20 20" fill="none" xmlns="http://www.w3.org/2000/svg">
<path d="M12.6146 0.658033L12.2727 0.293265L11.5431 0.977206L11.8851 1.34197L12.6146 0.658033ZM18.9999 8.2L19.4948 8.27074L19.5288 8.03314L19.3646 7.85803L18.9999 8.2ZM17.4564 19V19.5H17.89L17.9513 19.0707L17.4564 19ZM2.54338 19L2.04841 19.0707L2.10976 19.5H2.54338V19ZM0.999878 8.2L0.635109 7.85803L0.470949 8.03314L0.504907 8.27074L0.999878 8.2ZM8.11465 1.34197L8.45662 0.977206L7.72708 0.293265L7.38511 0.658033L8.11465 1.34197ZM11.8851 1.34197L18.6351 8.54197L19.3646 7.85803L12.6146 0.658033L11.8851 1.34197ZM18.5049 8.12926L16.9614 18.9293L17.9513 19.0707L19.4948 8.27074L18.5049 8.12926ZM17.4564 18.5H2.54338V19.5H17.4564V18.5ZM3.03835 18.9293L1.49485 8.12926L0.504907 8.27074L2.04841 19.0707L3.03835 18.9293ZM1.36465 8.54197L8.11465 1.34197L7.38511 0.658033L0.635109 7.85803L1.36465 8.54197ZM0.999878 8.7H18.9999V7.7H0.999878V8.7Z" fill="#211E1D"/>
</svg>
